<?xml version="1.0" encoding="UTF-8"?>
<svg width="168px" height="48px" viewBox="0 0 168 48" version="1.1" xmlns="http://www.w3.org/2000/svg" xmlns:xlink="http://www.w3.org/1999/xlink">
    <title>OANDA_logo_EN_DarkMode_Strapline</title>
    <g id="OANDA_logo_EN_DarkMode_Strapline" stroke="none" stroke-width="1" fill="none" fill-rule="evenodd">
        <g id="OANDA_EN_Logo_white_Green_ST_RGB_v0.02" transform="translate(1.000000, 0.000000)" fill-rule="nonzero">
            <g id="b" transform="translate(50.729283, 40.368466)" fill="#FFFFFF">
                <path d="M0,5.36287986 L1.48869984,5.36287986 C1.49982615,5.88692891 2.01274889,6.32641802 2.69812939,6.32641802 C3.38350989,6.32641802 3.80074639,5.96147516 3.80074639,5.43742611 C3.80074639,5.03131592 3.50144874,4.74203194 2.87058714,4.5484342 L1.97158156,4.29252915 C0.354929186,3.86416634 0.0667578406,2.8906145 0.0667578406,2.22637398 C0.0667578406,0.910131893 1.20164113,0 2.61356946,0 C4.02549779,0 5.07582114,0.845599314 5.07582114,2.2486266 L3.58823393,2.2486266 C3.58823393,1.72346492 3.2244037,1.31735472 2.5824158,1.31735472 C2.00384785,1.31735472 1.56547136,1.70232493 1.56547136,2.19522032 C1.56547136,2.37657912 1.61887763,2.75153566 2.38881806,2.97628706 L3.21327739,3.21105213 C4.32590807,3.54261607 5.30057254,4.11005772 5.30057254,5.36287986 C5.30057254,6.82932709 4.0477504,7.63153381 2.65696205,7.63153381 C1.08370228,7.63153381 0.00222526135,6.65798197 0.00222526135,5.36287986 L0,5.36287986 Z" id="Path"></path>
                <polygon id="Path" points="16.5370297 7.50358128 15.0171762 7.50358128 14.4820009 2.93289446 12.6839897 6.66910827 11.5179528 6.66910827 9.69768897 2.93289446 9.16251362 7.50358128 7.64154748 7.50358128 8.55167938 0.127952528 9.81451519 0.127952528 12.0942954 4.96678334 14.3529357 0.127952528 15.6380242 0.127952528 16.5370297 7.50358128"></polygon>
                <path d="M23.9126585,7.50358128 L23.3129506,5.7378364 L20.5514012,5.7378364 L19.9628196,7.50358128 L18.3795461,7.50358128 L21.1299692,0.127952528 L22.7354952,0.127952528 L25.4759046,7.50358128 L23.9126585,7.50358128 Z M20.9897777,4.44273429 L22.8745741,4.44273429 L21.9321759,1.64891866 L20.9897777,4.44273429 Z" id="Shape"></path>
                <path d="M31.4596324,7.50358128 L29.7039012,4.85997079 L29.2009921,4.85997079 L29.2009921,7.50358128 L27.7134049,7.50358128 L27.7134049,0.127952528 L30.656313,0.127952528 C32.3475116,0.127952528 33.0751721,1.3273684 33.0751721,2.53679794 C33.0751721,3.5871213 32.3363853,4.61407941 31.2983009,4.79543821 L33.2042373,7.50358128 L31.4596324,7.50358128 L31.4596324,7.50358128 Z M29.2009921,1.44530725 L29.2009921,3.66166756 L30.388169,3.66166756 C31.2237547,3.66166756 31.5764586,3.15764586 31.5764586,2.57017686 C31.5764586,1.98270786 31.2015021,1.44530725 30.5061079,1.44530725 L29.1998795,1.44530725 L29.2009921,1.44530725 Z" id="Shape"></path>
                <polygon id="Path" points="40.6343849 0.127952528 40.6343849 1.44419462 38.600496 1.44419462 38.600496 7.50246865 37.1129088 7.50246865 37.1129088 1.44419462 35.07902 1.44419462 35.07902 0.127952528"></polygon>
                <polygon id="Path" points="44.6276164 6.18733919 47.8598085 6.18733919 47.8598085 7.50358128 43.1400292 7.50358128 43.1400292 0.127952528 47.7641223 0.127952528 47.7641223 1.44419462 44.6276164 1.44419462 44.6276164 3.19992582 47.3780395 3.19992582 47.3780395 4.53842053 44.6276164 4.53842053 44.6276164 6.18733919"></polygon>
                <path d="M54.4221043,7.50358128 L52.6663731,4.85997079 L52.163464,4.85997079 L52.163464,7.50358128 L50.6758768,7.50358128 L50.6758768,0.127952528 L53.6187849,0.127952528 C55.3099835,0.127952528 56.037644,1.3273684 56.037644,2.53679794 C56.037644,3.5871213 55.2988572,4.61407941 54.2607728,4.79543821 L56.1667092,7.50358128 L54.4221043,7.50358128 L54.4221043,7.50358128 Z M52.163464,1.44530725 L52.163464,3.66166756 L53.3506409,3.66166756 C54.1862266,3.66166756 54.5389305,3.15764586 54.5389305,2.57017686 C54.5389305,1.98270786 54.1639739,1.44530725 53.4685798,1.44530725 L52.1623514,1.44530725 L52.163464,1.44530725 Z" id="Shape"></path>
                <polygon id="Path" points="67.3308454 0.127952528 67.3308454 1.44419462 65.2969565 1.44419462 65.2969565 7.50246865 63.8093693 7.50246865 63.8093693 1.44419462 61.7754804 1.44419462 61.7754804 0.127952528 67.3308454 0.127952528"></polygon>
                <path d="M73.5827171,7.50358128 L71.8269859,4.85997079 L71.3240769,4.85997079 L71.3240769,7.50358128 L69.8364897,7.50358128 L69.8364897,0.127952528 L72.7793978,0.127952528 C74.4705964,0.127952528 75.1982569,1.3273684 75.1982569,2.53679794 C75.1982569,3.5871213 74.4594701,4.61407941 73.4213857,4.79543821 L75.327322,7.50358128 L73.5827171,7.50358128 L73.5827171,7.50358128 Z M71.3240769,1.44530725 L71.3240769,3.66166756 L72.5112538,3.66166756 C73.3468394,3.66166756 73.6995434,3.15764586 73.6995434,2.57017686 C73.6995434,1.98270786 73.3245868,1.44530725 72.6291926,1.44530725 L71.3229642,1.44530725 L71.3240769,1.44530725 Z" id="Shape"></path>
                <path d="M82.6061519,7.50358128 L82.006444,5.7378364 L79.2448946,5.7378364 L78.656313,7.50358128 L77.0730396,7.50358128 L79.8234626,0.127952528 L81.4289887,0.127952528 L84.169398,7.50358128 L82.6061519,7.50358128 L82.6061519,7.50358128 Z M79.6832711,4.44273429 L81.5680675,4.44273429 L80.6256693,1.64891866 L79.6832711,4.44273429 Z" id="Shape"></path>
                <path d="M89.2975128,0.127952528 C91.4170742,0.127952528 92.6476438,1.73347859 92.6476438,3.83190005 C92.6476438,5.9303215 91.4159616,7.50358128 89.2975128,7.50358128 L86.4080109,7.50358128 L86.4080109,0.127952528 L89.2975128,0.127952528 Z M89.2975128,6.18622656 C90.529195,6.18622656 91.1600566,5.09473587 91.1600566,3.83078742 C91.1600566,2.56683897 90.529195,1.44419462 89.2975128,1.44419462 L87.8955982,1.44419462 L87.8955982,6.18622656 L89.2975128,6.18622656 Z" id="Shape"></path>
                <polygon id="Path" points="95.4203194 7.50358128 95.4203194 0.127952528 96.9079066 0.127952528 96.9079066 7.50358128"></polygon>
                <polygon id="Path" points="104.11219 0.127952528 105.60089 0.127952528 105.60089 7.50358128 104.262395 7.50358128 101.586519 2.87948819 101.586519 7.50358128 100.098931 7.50358128 100.098931 0.127952528 101.479706 0.127952528 104.11219 4.69863935 104.11219 0.127952528"></polygon>
                <path d="M108.340187,3.82188637 C108.340187,1.72457755 109.989105,0.00111263068 112.107554,0.00111263068 C113.221298,0.00111263068 114.194849,0.4606291 114.836837,1.17938852 L113.75536,2.10954776 C113.338124,1.66004497 112.749542,1.3818873 112.106442,1.3818873 C110.822466,1.3818873 109.826661,2.50564428 109.826661,3.82188637 C109.826661,5.13812846 110.801326,6.29415174 112.148722,6.29415174 C113.11226,6.29415174 114.064672,5.71669641 114.064672,4.85997079 L111.977377,4.85997079 L111.977377,3.65054125 L115.691338,3.65054125 C115.691338,6.3798243 114.181498,7.63153381 112.180988,7.63153381 C109.954614,7.63153381 108.337962,5.90806889 108.337962,3.82077374 L108.340187,3.82188637 Z" id="Path"></path>
            </g>
            <g id="c" transform="translate(49.404140, 10.443152)" fill="#FFFFFF">
                <path d="M11.2575972,0 C5.05023064,0 1.26491463e-14,5.10586217 1.26491463e-14,11.3810992 C1.26491463e-14,17.6563362 5.05023064,22.793352 11.2575972,22.793352 C17.4649637,22.793352 22.4840407,17.6741383 22.4840407,11.3810992 C22.4840407,5.08806008 17.4482743,0 11.2575972,0 Z M11.2253309,17.8332445 C7.79063999,17.8332445 5.29723465,15.1184256 5.29723465,11.3788739 C5.29723465,7.63932222 7.79063999,4.95788229 11.2253309,4.95788229 C14.6600218,4.95788229 17.1868061,7.718319 17.1868061,11.3788739 C17.1868061,15.0394288 14.6244176,17.8332445 11.2253309,17.8332445 Z" id="Shape"></path>
                <polygon id="Path" points="63.5056211 0.370506015 63.5056211 11.213092 55.5113697 0.370506015 50.482279 0.370506015 50.482279 22.4217334 56.1032892 22.4217334 56.1032892 11.417816 64.2844626 22.4217334 69.1266313 22.4217334 69.1266313 0.370506015"></polygon>
                <path d="M83.1101736,0.370506015 L73.8786769,0.370506015 L73.8786769,22.4217334 L83.1101736,22.4217334 C89.1417445,22.4217334 93.1939454,18.0090401 93.1939454,11.4422939 C93.1939454,4.87554762 89.1417445,0.370506015 83.1101736,0.370506015 L83.1101736,0.370506015 Z M79.4996871,5.37400617 L83.1101736,5.37400617 C86.1554438,5.37400617 87.5417816,8.51941309 87.5417816,11.4422939 C87.5417816,14.3651747 86.1554438,17.4182332 83.1101736,17.4182332 L79.4996871,17.4182332 L79.4996871,5.37289354 L79.4996871,5.37400617 Z" id="Shape"></path>
                <path d="M41.1417445,22.4217334 L47.1666396,22.4217334 L38.1721332,0.370506015 L35.3760923,0.379407061 L32.5800515,0.370506015 L23.5855451,22.4217334 L29.6104402,22.4217334 L31.4173524,17.4304722 L39.3359449,17.4304722 L41.1428571,22.4217334 L41.1417445,22.4217334 Z M33.1975615,12.5081941 L35.3760923,6.48997473 L37.5546232,12.5081941 L33.1986741,12.5081941 L33.1975615,12.5081941 Z" id="Shape"></path>
                <path d="M111.465566,22.4217334 L117.490462,22.4217334 L108.495955,0.370506015 L105.698802,0.379407061 L102.902761,0.370506015 L93.9082543,22.4217334 L99.9331494,22.4217334 L101.740062,17.4304722 L109.658654,17.4304722 L111.465566,22.4217334 L111.465566,22.4217334 Z M103.521383,12.5081941 L105.699914,6.48997473 L107.878445,12.5081941 L103.522496,12.5081941 L103.521383,12.5081941 Z" id="Shape"></path>
            </g>
            <polygon id="Path" fill="#FFFFFF" points="9.52856911 29.4390951 3.22885422 29.4390951 6.32457316e-15 17.1667787 6.29971489 17.1667787"></polygon>
            <polygon id="Path" fill="#00D37E" points="36.3273916 18.8991447 30.0276767 18.8991447 35.0912589 -3.16228658e-15 41.3909738 -3.16228658e-15"></polygon>
            <polygon id="Path" fill="#00D37E" points="23.679006 9.44957233 18.3517304 29.3300573 15.2385897 40.9481468 21.464871 40.9481468 21.5383046 40.9481468 29.9787209 9.44957233"></polygon>
            <polygon id="Path" fill="#FFFFFF" points="16.3234046 21.8242507 10.0236898 21.8242507 15.1028488 40.9481468 15.1762824 40.9481468 21.464871 40.9481468"></polygon>
        </g>
    </g>
</svg>