<svg width="301" height="103" viewBox="0 0 301 103" fill="none" xmlns="http://www.w3.org/2000/svg"><g clip-path="url(#clip0_4427_1333)"><path d="M88.4121 62.4631L88.8486 66.6011C87.251 66.863 85.8804 66.994 84.763 66.994C82.0566 66.994 80.0749 66.4003 78.8265 65.2043C77.5781 64.0083 76.9496 62.1401 76.9496 59.6083V43.8418H72.375V39.5554H76.9496V32.8507L82.7376 31.9078V39.5554H88.3597V43.8418H82.7376V59.1195C82.7376 60.4028 83.017 61.302 83.5757 61.7909C84.1344 62.2885 85.0598 62.5329 86.3606 62.5329C86.8844 62.5329 87.574 62.5067 88.4121 62.4543V62.4631Z" fill="#e0e0e8"/><path d="M98.2418 48.3293V66.6275H92.48V46.5309C92.48 44.8547 92.5586 43.2047 92.707 41.5635C94.1562 40.7429 95.8061 40.1492 97.6656 39.7738C99.5601 39.3897 101.454 39.1976 103.349 39.1976C104.335 39.1976 105.173 39.2326 105.872 39.3024L105.418 43.8944C104.894 43.8246 104.204 43.7896 103.349 43.7896C102.406 43.7896 101.498 43.8682 100.616 44.0341C99.7259 44.1825 98.9926 44.4095 98.4164 44.7063C98.3029 45.7626 98.2506 46.9674 98.2506 48.338L98.2418 48.3293Z" fill="#e0e0e8"/><path d="M117.213 66.9939C113.634 66.9939 111.032 66.3042 109.417 64.9074C107.819 63.5193 107.016 61.3979 107.016 58.5519C107.016 56.0813 107.601 54.1432 108.771 52.7464C109.941 51.3496 111.783 50.4591 114.297 50.075C116.261 49.7782 119.465 49.5425 123.891 49.3591C123.891 47.4211 123.429 45.9981 122.512 45.0901C121.595 44.1822 120.129 43.7195 118.129 43.7195C115.458 43.7195 112.315 43.9465 108.718 44.4004L108.247 40.1751C112.228 39.5203 115.703 39.1886 118.671 39.1886C121.264 39.1886 123.394 39.5291 125.052 40.21C125.987 40.5767 126.781 41.083 127.436 41.729C128.833 43.1084 129.531 45.1076 129.531 47.7179V59.6519C129.531 61.328 129.452 62.978 129.304 64.6193C126.484 66.1994 122.451 66.9939 117.204 66.9939H117.213ZM123.891 58.1154V53.1305C123.891 53.1305 123.804 53.1305 123.717 53.1305C123.629 53.1305 123.507 53.1392 123.341 53.148C123.175 53.1567 123.018 53.148 122.87 53.148L121.744 53.1916L120.714 53.2527C120.286 53.2615 119.91 53.2877 119.57 53.3313C119.491 53.3313 119.151 53.3662 118.549 53.4361C117.92 53.4972 117.248 53.6107 116.523 53.7678C115.074 54.0996 114.07 54.5797 113.511 55.2083C112.97 55.8368 112.708 56.9194 112.708 58.4471C112.708 60.1058 113.171 61.2407 114.087 61.8344C114.952 62.3844 116.27 62.655 118.051 62.655C120.513 62.655 122.398 62.3495 123.708 61.7296C123.821 60.6733 123.874 59.4685 123.874 58.0979L123.891 58.1154Z" fill="#e0e0e8"/><path d="M150.43 39.9309V29.0881H156.192V59.6434C156.192 61.3195 156.114 62.9695 155.965 64.6108C154.516 65.4314 152.866 66.0338 151.007 66.4004C149.112 66.7846 147.218 66.9766 145.323 66.9766C143.045 66.9766 141.124 66.7496 139.579 66.3044C138.016 65.8417 136.724 65.0735 135.685 64.0084C134.638 62.9346 133.878 61.5116 133.407 59.7481C132.935 57.9847 132.691 55.7498 132.691 53.0696C132.691 49.0014 133.285 45.8761 134.472 43.6761C135.066 42.5848 135.842 41.7118 136.794 41.0571C137.754 40.4023 138.863 39.9221 140.103 39.6166C141.342 39.3198 142.818 39.1714 144.52 39.1714C146.476 39.1714 148.449 39.4158 150.43 39.9134V39.9309ZM150.43 58.0108V44.4181C148.929 43.9118 147.41 43.6586 145.873 43.6586C142.94 43.6586 140.941 44.357 139.867 45.7538C139.125 46.7054 138.697 48.1982 138.575 50.2411C138.531 50.8173 138.514 51.7688 138.514 53.0871C138.514 53.8815 138.514 54.4228 138.531 54.7283C138.54 54.9641 138.575 55.4791 138.636 56.2823C138.723 57.2688 138.924 58.1942 139.23 59.0759C139.492 59.8529 139.981 60.5688 140.688 61.2061C141.683 62.1052 143.228 62.5592 145.323 62.5592C146.231 62.5592 147.148 62.4806 148.056 62.3322C148.955 62.1664 149.697 61.9394 150.256 61.6513C150.369 60.5949 150.422 59.3902 150.422 58.0196L150.43 58.0108Z" fill="#e0e0e8"/><path d="M182.426 46.6966C182.854 48.4077 183.063 50.5379 183.063 53.0783C183.063 55.6188 182.854 57.7402 182.426 59.4775C181.588 62.9608 179.659 65.2131 176.638 66.2258C175.119 66.7321 173.242 66.9853 171.016 66.9853C168.79 66.9853 166.895 66.7409 165.394 66.252C162.382 65.2655 160.444 63.0306 159.588 59.5298C159.169 57.7751 158.968 55.6275 158.968 53.0696C158.968 50.5117 159.178 48.3641 159.588 46.6268C160.452 43.1348 162.382 40.8999 165.394 39.9221C166.886 39.4245 168.755 39.1801 171.016 39.1801C173.277 39.1801 175.119 39.4332 176.638 39.9396C179.659 40.9523 181.588 43.2046 182.426 46.6879V46.6966ZM164.782 53.087C164.782 56.0378 165.044 58.2029 165.559 59.5909C166.005 60.656 166.642 61.3806 167.463 61.7822C168.283 62.175 169.471 62.3846 171.024 62.402C172.308 62.402 173.338 62.2536 174.106 61.9568C174.874 61.66 175.503 61.1536 175.974 60.429C176.472 59.7044 176.813 58.7529 176.996 57.583C177.188 56.4569 177.284 54.9553 177.284 53.087C177.284 51.2188 177.188 49.7172 176.996 48.5998C176.813 47.4474 176.472 46.4958 175.974 45.7538C175.494 45.0379 174.874 44.5229 174.097 44.226C173.32 43.9292 172.299 43.7808 171.016 43.7808C169.759 43.7721 168.737 43.9117 167.943 44.1998C167.148 44.4879 166.528 44.9681 166.057 45.6403C165.752 46.103 165.507 46.6879 165.315 47.3776C164.957 48.5998 164.782 50.5117 164.782 53.0958V53.087Z" fill="#e0e0e8"/><path d="M182.802 39.5557H188.913L196.045 61.1539L203.204 39.5557H209.053L200.567 63.2665C199.686 65.7459 198.132 66.9943 195.897 66.9943C193.662 66.9943 192.125 65.7546 191.244 63.2665L182.793 39.5557H182.802Z" fill="#e0e0e8"/><path d="M219.573 66.9939C215.993 66.9939 213.392 66.3042 211.777 64.9074C210.179 63.5193 209.376 61.3979 209.376 58.5519C209.376 56.0813 209.961 54.1432 211.131 52.7464C212.301 51.3496 214.143 50.4591 216.657 50.075C218.621 49.7782 221.825 49.5425 226.251 49.3591C226.251 47.4211 225.789 45.9981 224.872 45.0901C223.955 44.1822 222.489 43.7195 220.489 43.7195C217.818 43.7195 214.675 43.9465 211.078 44.4004L210.607 40.1751C214.588 39.5203 218.062 39.1886 221.031 39.1886C223.623 39.1886 225.754 39.5291 227.412 40.21C228.346 40.5767 229.141 41.083 229.796 41.729C231.192 43.1084 231.891 45.1076 231.891 47.7179V59.6519C231.891 61.328 231.812 62.978 231.664 64.6193C228.844 66.1994 224.811 66.9939 219.564 66.9939H219.573ZM226.242 58.1154V53.1305C226.242 53.1305 226.155 53.1305 226.068 53.1305C225.981 53.1305 225.858 53.1392 225.692 53.148C225.527 53.1567 225.369 53.148 225.221 53.148L224.095 53.1916L223.065 53.2527C222.637 53.2615 222.262 53.2877 221.921 53.3313C221.843 53.3313 221.502 53.3662 220.9 53.4361C220.271 53.4972 219.599 53.6107 218.874 53.7678C217.425 54.0996 216.421 54.5797 215.862 55.2083C215.321 55.8368 215.059 56.9194 215.059 58.4471C215.059 60.1058 215.522 61.2407 216.439 61.8344C217.303 62.3844 218.621 62.655 220.402 62.655C222.864 62.655 224.75 62.3495 226.059 61.7296C226.173 60.6733 226.225 59.4685 226.225 58.0979L226.242 58.1154Z" fill="#e0e0e8"/><path d="M250.25 62.4631L250.687 66.6011C249.089 66.863 247.718 66.994 246.601 66.994C243.895 66.994 241.913 66.4003 240.664 65.2043C239.416 64.0083 238.787 62.1401 238.787 59.6083V43.8418H234.213V39.5554H238.787V32.8507L244.575 31.9078V39.5554H250.198V43.8418H244.575V59.1195C244.575 60.4028 244.855 61.302 245.414 61.7909C245.972 62.2885 246.898 62.5329 248.198 62.5329C248.722 62.5329 249.412 62.5067 250.25 62.4543V62.4631Z" fill="#e0e0e8"/><path d="M262.446 55.7584L257.67 55.968C257.793 57.9584 258.273 59.46 259.111 60.4814C259.739 61.1798 260.525 61.6774 261.468 61.9743C262.411 62.2711 263.554 62.4108 264.89 62.402C267.701 62.402 270.931 62.1663 274.607 61.7036L275.096 66.0075C270.957 66.6623 267.064 66.994 263.406 66.994C261.669 66.994 260.132 66.7671 258.779 66.3131C257.426 65.8591 256.317 65.2306 255.444 64.4187C254.571 63.598 253.881 62.6028 253.358 61.4243C252.415 59.2767 251.943 56.4918 251.943 53.0783C251.943 50.5379 252.153 48.4165 252.563 46.7141C252.974 45.0117 253.654 43.5975 254.589 42.4626C255.531 41.3189 256.762 40.4808 258.29 39.9658C259.818 39.442 261.721 39.1801 264 39.1801C268.024 39.1801 270.94 40.0705 272.738 41.8427C273.917 42.9951 274.729 44.4705 275.174 46.2514C275.611 47.9276 275.829 49.9704 275.829 52.3886C275.829 53.0958 275.803 53.768 275.75 54.3966C274.24 54.6672 272.119 54.9466 269.377 55.2172C266.566 55.5053 264.261 55.6799 262.446 55.7497V55.7584ZM257.522 52.0307L262.961 51.7688C265.597 51.6466 267.928 51.4458 269.953 51.1577C269.997 50.8696 270.015 50.4506 270.015 49.8918C270.015 47.7442 269.552 46.1466 268.635 45.1078C267.727 44.0514 266.182 43.5276 264 43.5276C261.66 43.5276 260.01 44.13 259.058 45.3347C258.439 46.0943 258.028 47.0546 257.81 48.2069C257.618 49.2284 257.522 50.5029 257.522 52.022V52.0307Z" fill="#e0e0e8"/><path d="M233.427 95.6988V102.744H229.507V82.2807C229.507 81.1457 229.56 80.0196 229.664 78.8934C230.651 78.3347 231.777 77.9243 233.034 77.6712C234.326 77.4093 235.61 77.2783 236.902 77.2783C238.464 77.2783 239.774 77.4355 240.813 77.741C241.86 78.0466 242.742 78.5616 243.458 79.3037C244.165 80.0196 244.689 80.9799 245.012 82.1934C245.335 83.4068 245.501 84.9171 245.501 86.7417C245.501 89.5091 245.099 91.6393 244.287 93.1321C243.877 93.8742 243.353 94.4678 242.707 94.9131C242.052 95.3583 241.302 95.69 240.455 95.8908C239.608 96.0916 238.604 96.1964 237.452 96.1964C236.125 96.1964 234.78 96.0305 233.427 95.69V95.6988ZM233.427 83.3981V92.6432C234.449 92.9924 235.479 93.1583 236.526 93.1583C238.517 93.1583 239.879 92.6869 240.612 91.7266C241.118 91.0806 241.406 90.0591 241.494 88.6711C241.52 88.2782 241.537 87.6322 241.537 86.733C241.537 86.4012 241.537 86.0258 241.52 85.6155C241.52 85.3013 241.494 84.9521 241.459 84.5592C241.398 83.887 241.258 83.2584 241.057 82.656C240.874 82.1235 240.551 81.6434 240.062 81.2069C239.39 80.5957 238.333 80.2902 236.91 80.2902C236.273 80.2902 235.645 80.3426 235.051 80.4561C234.44 80.5608 233.942 80.7092 233.549 80.91C233.471 81.6259 233.436 82.4553 233.436 83.3806L233.427 83.3981Z" fill="#056DFF"/><path d="M254.396 83.5029V95.9607H250.477V82.2807C250.477 81.1457 250.529 80.0196 250.634 78.8934C251.62 78.3347 252.746 77.9243 254.004 77.6712C255.296 77.4093 256.579 77.2783 257.871 77.2783C258.543 77.2783 259.111 77.3045 259.591 77.3482L259.276 80.4735C258.919 80.4211 258.447 80.4037 257.871 80.4037C257.225 80.4037 256.605 80.4561 256.011 80.5696C255.4 80.6743 254.903 80.8227 254.51 81.0235C254.431 81.7394 254.396 82.5687 254.396 83.4941V83.5029Z" fill="#056DFF"/><path d="M278.919 82.3941C279.208 83.5552 279.356 85.0044 279.356 86.7417C279.356 88.479 279.208 89.9195 278.919 91.098C278.343 93.4726 277.034 95.0004 274.982 95.69C273.943 96.0305 272.669 96.2051 271.158 96.2051C269.648 96.2051 268.356 96.0392 267.335 95.7075C265.283 95.0353 263.965 93.5162 263.38 91.1329C263.101 89.9369 262.952 88.4703 262.952 86.733C262.952 84.9957 263.092 83.5291 263.38 82.3505C263.965 79.9672 265.283 78.4482 267.335 77.7847C268.347 77.4442 269.622 77.2783 271.158 77.2783C272.695 77.2783 273.952 77.4529 274.982 77.7934C277.034 78.4831 278.352 80.0108 278.919 82.3854V82.3941ZM266.907 86.7417C266.907 88.7496 267.081 90.225 267.431 91.1679C267.736 91.8925 268.164 92.3901 268.723 92.6607C269.281 92.9313 270.085 93.071 271.141 93.0885C272.014 93.0885 272.712 92.9837 273.245 92.7829C273.777 92.5821 274.196 92.2329 274.519 91.744C274.86 91.2464 275.087 90.6004 275.209 89.806C275.34 89.0377 275.401 88.0163 275.401 86.7417C275.401 85.4671 275.331 84.4457 275.209 83.6862C275.087 82.9005 274.851 82.2545 274.519 81.7481C274.196 81.2592 273.769 80.91 273.245 80.7092C272.721 80.5084 272.023 80.4037 271.15 80.4037C270.294 80.4037 269.596 80.491 269.063 80.6918C268.522 80.8926 268.094 81.2156 267.78 81.6695C267.57 81.9838 267.404 82.3767 267.274 82.8481C267.029 83.6862 266.907 84.9782 266.907 86.7417Z" fill="#056DFF"/><path d="M288.435 95.6988V102.744H284.515V82.2807C284.515 81.1457 284.568 80.0196 284.672 78.8934C285.659 78.3347 286.785 77.9243 288.042 77.6712C289.334 77.4093 290.617 77.2783 291.91 77.2783C293.472 77.2783 294.782 77.4355 295.821 77.741C296.868 78.0466 297.75 78.5616 298.466 79.3037C299.173 80.0196 299.697 80.9799 300.02 82.1934C300.343 83.4068 300.509 84.9171 300.509 86.7417C300.509 89.5091 300.107 91.6393 299.295 93.1321C298.885 93.8742 298.361 94.4678 297.715 94.9131C297.06 95.3583 296.309 95.69 295.463 95.8908C294.616 96.0916 293.612 96.1964 292.46 96.1964C291.133 96.1964 289.788 96.0305 288.435 95.69V95.6988ZM288.435 83.3981V92.6432C289.456 92.9924 290.487 93.1583 291.534 93.1583C293.525 93.1583 294.886 92.6869 295.62 91.7266C296.126 91.0806 296.414 90.0591 296.502 88.6711C296.528 88.2782 296.545 87.6322 296.545 86.733C296.545 86.4012 296.545 86.0258 296.528 85.6155C296.528 85.3013 296.502 84.9521 296.467 84.5592C296.405 83.887 296.266 83.2584 296.065 82.656C295.882 82.1235 295.559 81.6434 295.07 81.2069C294.398 80.5957 293.341 80.2902 291.918 80.2902C291.281 80.2902 290.652 80.3426 290.059 80.4561C289.448 80.5608 288.95 80.7092 288.557 80.91C288.479 81.6259 288.444 82.4553 288.444 83.3806L288.435 83.3981Z" fill="#056DFF"/><path fill-rule="evenodd" clip-rule="evenodd" d="M0.5 25.9107L27.5632 37.9931V13.837L0.5 25.9107Z" fill="#056DFF"/><path fill-rule="evenodd" clip-rule="evenodd" d="M58.5813 -0.000244141L31.5181 12.0822L58.5813 24.1558V-0.000244141Z" fill="#056DFF"/><path fill-rule="evenodd" clip-rule="evenodd" d="M87.9319 12.0822L60.8687 -0.000244141V24.1558L87.9319 12.0822Z" fill="#056DFF"/><path fill-rule="evenodd" clip-rule="evenodd" d="M31.5181 39.748L58.5813 51.8304V27.6743L31.5181 39.748Z" fill="#056DFF"/><path fill-rule="evenodd" clip-rule="evenodd" d="M56.9225 53.5848L29.8506 41.5111V65.6672L56.9225 53.5848Z" fill="#056DFF"/><path fill-rule="evenodd" clip-rule="evenodd" d="M31.5181 67.422L58.5813 79.5044V55.3483L31.5181 67.422Z" fill="#056DFF"/><path fill-rule="evenodd" clip-rule="evenodd" d="M56.9225 25.9107L29.8506 13.837V37.9931L56.9225 25.9107Z" fill="#056DFF"/></g><defs><clipPath id="clip0_4427_1333"><rect width="300" height="102.744" fill="white" transform="translate(0.5)"/></clipPath></defs></svg>
